<svg width="21" height="19" viewBox="0 0 21 19" fill="none" xmlns="http://www.w3.org/2000/svg">
<path d="M2.53223 18.8405C1.98223 18.8405 1.51123 18.62 1.11923 18.179C0.727228 17.738 0.531562 17.2085 0.532228 16.5905V3.09046C0.532228 2.47171 0.728228 1.94183 1.12023 1.50083C1.51223 1.05983 1.98289 0.839706 2.53223 0.840456H18.5322C19.0822 0.840456 19.5532 1.06096 19.9452 1.50196C20.3372 1.94296 20.5329 2.47246 20.5322 3.09046V16.5905C20.5322 17.2092 20.3362 17.7391 19.9442 18.1801C19.5522 18.6211 19.0816 18.8412 18.5322 18.8405H2.53223ZM10.5322 10.9655L18.5322 5.34046V3.09046L10.5322 8.71545L2.53223 3.09046V5.34046L10.5322 10.9655Z" fill="white"/>
</svg>
