<svg width="48" height="48" viewBox="0 0 48 48" fill="none" xmlns="http://www.w3.org/2000/svg">
<g clip-path="url(#clip0_0_251)">
<path opacity="0.6" d="M22.3724 18.8234C22.8052 18.3917 23.3821 18.1347 23.9925 18.1017C24.6029 18.0687 25.2041 18.262 25.6809 18.6446L25.8816 18.8234L31.4931 24.427C31.8533 24.7837 32.0635 25.2647 32.0806 25.7713C32.0978 26.278 31.9207 26.772 31.5856 27.1524C31.2504 27.5327 30.7825 27.7706 30.2778 27.8173C29.773 27.864 29.2694 27.716 28.8702 27.4036L28.6834 27.2387L26.1141 24.6714V41.7284C26.1135 42.2349 25.9196 42.722 25.5719 43.0903C25.2242 43.4586 24.7491 43.6802 24.2435 43.7099C23.7379 43.7396 23.24 43.5751 22.8516 43.25C22.4633 42.9249 22.2137 42.4638 22.1538 41.9609L22.1399 41.7284V24.6714L19.5706 27.2387C19.2135 27.5981 18.7326 27.8076 18.2262 27.8242C17.7198 27.8409 17.2261 27.6634 16.8462 27.3281C16.4663 26.9929 16.2288 26.5252 16.1823 26.0206C16.1358 25.5161 16.2838 25.0128 16.596 24.6137L16.7609 24.425L22.3724 18.8234ZM23.1335 3.974C28.6655 3.974 33.3868 7.45138 35.2268 12.3436C37.976 13.0943 40.3653 14.805 41.9618 17.1656C43.5584 19.5263 44.2565 22.3807 43.9298 25.2118C43.6031 28.0428 42.2731 30.6632 40.1808 32.5981C38.0885 34.533 35.3723 35.6545 32.5244 35.7592L32.0753 35.7672H30.0882V31.793C31.2343 31.7932 32.3561 31.4629 33.3193 30.8418C34.2826 30.2208 35.0463 29.3352 35.5191 28.2912C35.992 27.2472 36.1538 26.089 35.9853 24.9554C35.8168 23.8218 35.3251 22.7607 34.5691 21.8994L34.3008 21.6133L28.6893 16.0117C27.5266 14.8512 25.9652 14.1774 24.3232 14.1276C22.6811 14.0778 21.0818 14.6556 19.8508 15.7434L19.5647 16.0117L13.9532 21.6152C13.1441 22.4236 12.5846 23.4475 12.3414 24.5651C12.0982 25.6826 12.1816 26.8465 12.5817 27.9179C12.9818 28.9893 13.6817 29.9231 14.5978 30.6077C15.5139 31.2923 16.6076 31.699 17.7485 31.7791L18.1658 31.793V35.7672H14.1916C11.9079 35.7687 9.6934 34.9834 7.92081 33.5435C6.14823 32.1036 4.9258 30.097 4.45928 27.8614C3.99276 25.6259 4.31063 23.2978 5.3594 21.2692C6.40816 19.2405 8.12377 17.6351 10.2175 16.7231C10.2614 13.3265 11.6415 10.084 14.059 7.6978C16.4765 5.31157 19.7367 3.97372 23.1335 3.974Z" fill="#919191"/>
</g>
<defs>
<clipPath id="clip0_0_251">
<rect width="47.6898" height="47.6898" fill="white" transform="translate(0.28125)"/>
</clipPath>
</defs>
</svg>
