<svg width="13" height="18" viewBox="0 0 13 18" fill="none" xmlns="http://www.w3.org/2000/svg">
<path d="M4.45676 12.2497L4.94839 12.4984C4.94839 12.4984 6.11792 13.0884 7.56342 9.81809C9.00893 6.54781 7.8394 5.95782 7.8394 5.95782L7.53 5.80048C6.76664 5.41568 6.37885 4.49733 6.6181 3.63958L7.10659 1.88769C7.40294 0.825832 8.52016 0.299692 9.46527 0.776914L11.1608 1.63233C11.6289 1.86971 12.0223 2.25191 12.179 2.77684C12.5801 4.12059 13.031 7.15766 11.0726 11.5897C8.99493 16.2894 5.91806 17.5474 4.59471 17.8783C4.17557 17.9833 3.74619 17.8913 3.35595 17.6936L1.82214 16.919C0.785672 16.3967 0.511638 14.9625 1.27696 14.0637L2.46686 12.6645C2.96911 12.0743 3.7764 11.9065 4.45676 12.2497Z" fill="white"/>
</svg>
