<svg width="18" height="18" viewBox="0 0 18 18" fill="none" xmlns="http://www.w3.org/2000/svg">
<path d="M8.6807 3.14513V1.45411C8.6807 1.30462 8.74009 1.16125 8.8458 1.05554C8.95151 0.949828 9.09488 0.890442 9.24437 0.890442C9.39387 0.890442 9.53724 0.949828 9.64295 1.05554C9.74866 1.16125 9.80804 1.30462 9.80804 1.45411V3.14513C9.80804 3.29462 9.74866 3.43799 9.64295 3.5437C9.53724 3.64941 9.39387 3.7088 9.24437 3.7088C9.09488 3.7088 8.95151 3.64941 8.8458 3.5437C8.74009 3.43799 8.6807 3.29462 8.6807 3.14513ZM13.7537 9.34551C13.7537 10.2374 13.4893 11.1092 12.9938 11.8508C12.4983 12.5923 11.794 13.1703 10.97 13.5116C10.1461 13.8529 9.23937 13.9422 8.36464 13.7682C7.48991 13.5942 6.68641 13.1648 6.05577 12.5341C5.42512 11.9035 4.99565 11.1 4.82165 10.2252C4.64766 9.35051 4.73696 8.44383 5.07826 7.61985C5.41956 6.79587 5.99754 6.0916 6.7391 5.59611C7.48066 5.10061 8.3525 4.83614 9.24437 4.83614C10.4399 4.83745 11.5861 5.31296 12.4315 6.15835C13.2769 7.00373 13.7524 8.14995 13.7537 9.34551ZM12.6264 9.34551C12.6264 8.67661 12.428 8.02273 12.0564 7.46656C11.6848 6.91038 11.1566 6.4769 10.5386 6.22092C9.92063 5.96495 9.24062 5.89797 8.58457 6.02847C7.92852 6.15896 7.3259 6.48107 6.85292 6.95405C6.37993 7.42704 6.05783 8.02966 5.92733 8.68571C5.79684 9.34176 5.86381 10.0218 6.11979 10.6398C6.37577 11.2577 6.80925 11.7859 7.36542 12.1576C7.92159 12.5292 8.57547 12.7275 9.24437 12.7275C10.1411 12.7266 11.0007 12.37 11.6348 11.7359C12.2688 11.1019 12.6255 10.2422 12.6264 9.34551ZM4.33621 5.23494C4.44197 5.3407 4.58543 5.40012 4.735 5.40012C4.88458 5.40012 5.02803 5.3407 5.1338 5.23494C5.23957 5.12917 5.29899 4.98572 5.29899 4.83614C5.29899 4.68656 5.23957 4.54311 5.1338 4.43734L4.00646 3.31C3.90069 3.20423 3.75724 3.14481 3.60766 3.14481C3.45808 3.14481 3.31463 3.20423 3.20886 3.31C3.1031 3.41577 3.04368 3.55922 3.04368 3.7088C3.04368 3.85838 3.1031 4.00183 3.20886 4.10759L4.33621 5.23494ZM4.33621 13.4561L3.20886 14.5834C3.1031 14.6892 3.04368 14.8326 3.04368 14.9822C3.04368 15.1318 3.1031 15.2752 3.20886 15.381C3.31463 15.4868 3.45808 15.5462 3.60766 15.5462C3.75724 15.5462 3.90069 15.4868 4.00646 15.381L5.1338 14.2537C5.18617 14.2013 5.22772 14.1391 5.25606 14.0707C5.2844 14.0023 5.29899 13.9289 5.29899 13.8549C5.29899 13.7808 5.2844 13.7075 5.25606 13.639C5.22772 13.5706 5.18617 13.5085 5.1338 13.4561C5.08143 13.4037 5.01926 13.3622 4.95083 13.3338C4.88241 13.3055 4.80907 13.2909 4.735 13.2909C4.66094 13.2909 4.5876 13.3055 4.51918 13.3338C4.45075 13.3622 4.38858 13.4037 4.33621 13.4561ZM13.7537 5.39981C13.8278 5.39987 13.9011 5.38534 13.9695 5.35705C14.038 5.32876 14.1002 5.28727 14.1525 5.23494L15.2799 4.10759C15.3856 4.00183 15.4451 3.85838 15.4451 3.7088C15.4451 3.55922 15.3856 3.41577 15.2799 3.31C15.1741 3.20423 15.0307 3.14481 14.8811 3.14481C14.7315 3.14481 14.5881 3.20423 14.4823 3.31L13.3549 4.43734C13.276 4.51617 13.2223 4.61665 13.2005 4.72605C13.1787 4.83545 13.1899 4.94886 13.2326 5.05191C13.2753 5.15496 13.3476 5.24303 13.4404 5.30496C13.5331 5.36689 13.6422 5.3999 13.7537 5.39981ZM14.1525 13.4561C14.0468 13.3503 13.9033 13.2909 13.7537 13.2909C13.6042 13.2909 13.4607 13.3503 13.3549 13.4561C13.2492 13.5618 13.1898 13.7053 13.1898 13.8549C13.1898 14.0045 13.2492 14.1479 13.3549 14.2537L14.4823 15.381C14.5347 15.4334 14.5968 15.4749 14.6653 15.5033C14.7337 15.5316 14.807 15.5462 14.8811 15.5462C14.9551 15.5462 15.0285 15.5316 15.0969 15.5033C15.1653 15.4749 15.2275 15.4334 15.2799 15.381C15.3323 15.3286 15.3738 15.2665 15.4021 15.198C15.4305 15.1296 15.4451 15.0563 15.4451 14.9822C15.4451 14.9082 15.4305 14.8348 15.4021 14.7664C15.3738 14.698 15.3323 14.6358 15.2799 14.5834L14.1525 13.4561ZM3.60766 9.34551C3.60766 9.19601 3.54828 9.05264 3.44257 8.94693C3.33686 8.84122 3.19349 8.78184 3.04399 8.78184H1.35298C1.20348 8.78184 1.06011 8.84122 0.954402 8.94693C0.848693 9.05264 0.789307 9.19601 0.789307 9.34551C0.789307 9.495 0.848693 9.63838 0.954402 9.74408C1.06011 9.84979 1.20348 9.90918 1.35298 9.90918H3.04399C3.19349 9.90918 3.33686 9.84979 3.44257 9.74408C3.54828 9.63838 3.60766 9.495 3.60766 9.34551ZM9.24437 14.9822C9.09488 14.9822 8.95151 15.0416 8.8458 15.1473C8.74009 15.253 8.6807 15.3964 8.6807 15.5459V17.2369C8.6807 17.3864 8.74009 17.5298 8.8458 17.6355C8.95151 17.7412 9.09488 17.8006 9.24437 17.8006C9.39387 17.8006 9.53724 17.7412 9.64295 17.6355C9.74866 17.5298 9.80804 17.3864 9.80804 17.2369V15.5459C9.80804 15.3964 9.74866 15.253 9.64295 15.1473C9.53724 15.0416 9.39387 14.9822 9.24437 14.9822ZM17.1358 8.78184H15.4448C15.2953 8.78184 15.1519 8.84122 15.0462 8.94693C14.9405 9.05264 14.8811 9.19601 14.8811 9.34551C14.8811 9.495 14.9405 9.63838 15.0462 9.74408C15.1519 9.84979 15.2953 9.90918 15.4448 9.90918H17.1358C17.2853 9.90918 17.4286 9.84979 17.5343 9.74408C17.6401 9.63838 17.6994 9.495 17.6994 9.34551C17.6994 9.19601 17.6401 9.05264 17.5343 8.94693C17.4286 8.84122 17.2853 8.78184 17.1358 8.78184Z" fill="#F8F8F8"/>
</svg>
